<svg id="Layer_1" data-name="Layer 1" xmlns="http://www.w3.org/2000/svg" viewBox="0 0 512 512"><defs><style>.cls-1{fill:#FFFFFF;}</style></defs><title>tv-handdrawn</title><path class="cls-1" d="M147.57,466.1a4.23,4.23,0,0,0,2,3.92,2.63,2.63,0,0,0,.86.41,1.71,1.71,0,0,0,.36.08l.93.06,2,.12,9.19.45c2.73.11,12.55.19,15.15.11,17.3-.51,34.7-.11,48.79-.13l-9,1-7.9,1.11-31.17,0-18.91,0-8.37-.12a7.1,7.1,0,0,1-2.53-.31,6.56,6.56,0,0,1-1.95-1,6.24,6.24,0,0,1-2.44-5.92,6.11,6.11,0,0,1,4.1-4.91,5.26,5.26,0,0,1,1.66-.3c.42,0,2.13,0,3.13,0l7.1.06,14.58.13c1.55.14,4.87.38,6.73.64.86.12-.15.29-2,.39-5.73.34-16.34.64-17.66,1s-5.93.48-11.48.53A3.23,3.23,0,0,0,147.57,466.1ZM512,228l-.1-3.75c-.06,8.76-.12,17.42-.19,26.26V317.6c-.1,7.41.37,14.92-.84,22.57a63.61,63.61,0,0,1-22.14,39.1A64.7,64.7,0,0,1,446.3,394H422.69c-30.73-.09-39.47-.08-36.09.27,6.28.64-28,.7-51.89.86l-18.73.08c.23,1,.5,1.93.74,2.9l59.72,0L396,399.17l22.29,1c-29.5,0-64.88.26-101,0a160.7,160.7,0,0,0,5.25,16.61c.71,1.67,1.85,4.6,2.4,5.53,2.88,5.66,4.91,8.91,6.57,11.65.79,1.48,1.67,2.4,2.47,3.65a9.89,9.89,0,0,0,1.31,1.61l.66.74.17.24c.1.11,0,.59,0,.79s-.36.38-.26.58c-2.65.43,10.36.9,7.34,1.27-3.25.47,3.39.68,9,1l-16.12.33,4.44.15,3.45.19c1.81.13,2.8.29,3.91.43,2.22.3,4.93.58,15.68.68l-7.22.14,17.36,2.12H337.63c0,.28,2.89.63-.56.86l-2.62.19c-.43,0-.95.15-1.36,0l-1.19-.86a14,14,0,0,1-2.57-2.28,25.15,25.15,0,0,1-3.12-3.55,84.25,84.25,0,0,1-10-17.29c-4-9.41-6.25-16.7-7.72-21.07-.4-1.15-.78-2.38-1.16-3.68h-.57q1.17,4.68,2.57,9.28c-1-3.13-1.85-6.21-2.64-9.28l-9.2-.09-9.07,0c.52,2,1.05,4,1.63,6a169.41,169.41,0,0,0,11.64,29.47l1.67,3.63-1.35-3.78a96.48,96.48,0,0,0,9.6,15.93,59.31,59.31,0,0,0,6.5,7.36,44,44,0,0,0,5.29,4.41c1.92,1.27,3.49,3.5,6.05,2.94l14.31.24c8.39.3,10.73.72,8.35,1.11-1.19.2-3.56.39-6.95.56l-5.82.24-4,.1c-2.37,0-4.85.07-7.41,0-.64-.12-1.46.22-2-.29l-1.64-1.25-3.29-2.51c-1.08-.84-2.24-1.67-3.27-2.54l-2.47-2.44a64.84,64.84,0,0,1-7-8.3,111.09,111.09,0,0,1-9.86-17.46,184.54,184.54,0,0,1-11-33.42l-27.49.08c-10.2.17-19.53.36-27.34.56-.32,1.75-.63,3.39-.94,5-4.1,14.39-9.15,27.83-17.33,40.73-1.4,2-2.87,4.28-3.61,5.05-3.74,4-1.11.73,2.88-6.27a160.16,160.16,0,0,0,12.41-29.16c1.63-5,3-10.12,4.19-15.25l-7.42.22a161.75,161.75,0,0,1-7.11,22.74,112.92,112.92,0,0,1-6.16,13.08,77.34,77.34,0,0,1-9.72,13.86l-3.31,3.32c-1.32,1.13-2.75,2.15-4.12,3.23l-1,.8a4.18,4.18,0,0,1-1.29.09h-2.63l-4.75,0L149.86,458a8.83,8.83,0,0,0-4.05,16.17c2.23,1.46,4.11,1.6,7.87,1.54l39.38.51c9.64.16,23.51.23,21,.86-1.37.34,2.16.36,14.58.27h81.82l10.61-.19-1.52-.1,35.46.11c11.1-.87,26.89,3.85,29.18-8.63,0,1.11.56.37.78-1.95a10.85,10.85,0,0,0-4.47-9.21,10.38,10.38,0,0,0-5.74-3.82c-1-.23-1.3-.39-.73-.49a9.63,9.63,0,0,1,4.21.46,13.45,13.45,0,0,1,7.35,5.68A13.89,13.89,0,0,1,377.67,480c-3.73,1-6.93.37-10.21.53l-19.73-.08-25-.13c-21-.39-42.25-.7-66.13-.76l-15.25-.15L217.65,479c2.14.76-2.6,1-19.16.93l-25.09-.07-20.4,0c-3.28.22-7.34-.3-10.2-2.59a13.32,13.32,0,0,1-5.34-9.2c-1.08-7.41,5.24-14.74,12.73-14.81l20.42-.07a1.25,1.25,0,0,0,.41-.11l-4.15-.06-12.77,0c-2.07.06-4.29-.22-6.64.38a13.4,13.4,0,0,0-6.1,3.3,13.64,13.64,0,0,0,5,22.88,19.23,19.23,0,0,0,6.73.73l6.39,0,12.78,0,25.56.06,8.21-.16h24.71a4.67,4.67,0,0,1-2.39.58l-19.24,1.36c12.73.42,12.59.42,21.31-.06l7.1-.13c13.1-.1,36.33.34,42.4.76,1.67.12,4.46.3,7.08.31l36.39,0c21.83,0,38.33.67,32.62,1.42-2,.26.32.66,4.5,1,2.09.17,4.65.33,7.38.45l4.2.14c.82,0,1.18.06,2.38,0a19.5,19.5,0,0,0,18.14-13.6,20.39,20.39,0,0,0,0-12.73c-2.27-6.08-4.5-7.65-5-8.61-.5-.73,2.94,2.17.12-.62a24.27,24.27,0,0,0-7-4.47c-1.19-.5-1-.59.29-.27a21.36,21.36,0,0,1,14.07,13.18,22.81,22.81,0,0,0-10.48-12.75,23.07,23.07,0,0,1,12.25,24.53,23.42,23.42,0,0,1-10,15.25,23.82,23.82,0,0,1-8.27,3.46,32.19,32.19,0,0,1-5.74.52c-15.93.5-35.34.41-53.62.44l-36.73-.2c1.41.73,15.22,1.6-19,1.74l3.31.82c-12.1.14-25,.18-32.84.42-11.1.34-22.47.35-33.18.19-5.39-.08-7.2-.46-10.62-.7l1-.19c-10.2.11-23.08.13-30.08.36l-6.72.19-3.73.08a27.32,27.32,0,0,1-8.11-1.23,26.69,26.69,0,0,1,5.92-52l2.31-.1h1.07l2.14,0,4.22,0,8.12.14,12.41.07h6.19c.08,0,.14,0,.19-.09l.27-.31,1-1a23.23,23.23,0,0,0,1.89-2.3,61.19,61.19,0,0,0,3.66-5.29A125.31,125.31,0,0,0,203,404.64c.31-1,.56-2.11.85-3.16-7.16.07-16.05.09-27.5,0-26.2-.12-64.63.1-71.39-.62-1.64-.17-9-.34-17.77-.5-4.52-.14-8.75,0-13.93-.38a47.64,47.64,0,0,1-7.3-.82,42.75,42.75,0,0,1-6.39-1.38c-5-1.27-7.48-2.68-5.22-1.9,4.92,1.47,14,3,18.24,2.79,3.52.23,6.45.15,9.5.15l9.06,0,17.88-.06,34.87-.12,60.78-.24c.23-.9.51-1.8.73-2.7l-69.07.31-40.93.12c-6.92,0-13.69.11-20.78,0a63.16,63.16,0,0,1-21.47-4.14,65.49,65.49,0,0,1-33-27.12A63.41,63.41,0,0,1,12,345.2a85.28,85.28,0,0,1-1.84-20.4c0-10,0-23,0-34.56.05-47.58.1-92.94.15-142.23,0-6.37.14-21.72.26-25.35.23-6.93.49-8.42.78-12.66,0-4.7,0-9.84.07-15.47a71.43,71.43,0,0,1,3-18.93,74.43,74.43,0,0,0-2.09,11A64.58,64.58,0,0,1,60.35,32.15a67.19,67.19,0,0,1,17.63-2l17.23.07,36,.16,4.29-.38,55.28.06-12.25.13c.73.33,6.88.62.08.83-5.38.16-26.23.28-41.09.3-16,0-22.77,0-27.37.3-3.38.29-24.37.16-37.72.72a56.2,56.2,0,0,0-16.89,3.75,24.78,24.78,0,0,0-5.63,2.72c-1.37.95.69.25-.12.93-.56.47,1.1-.12,2-.25,1.81-.55,9.91-5,25.8-5a61.9,61.9,0,0,0-22.16,4A60.26,60.26,0,0,0,37.52,49.09a20.9,20.9,0,0,1,1.77-1.83A58.29,58.29,0,0,0,31.07,55,60.86,60.86,0,0,0,26,61.52a59.9,59.9,0,0,0-9.34,29.95c-.16,10.38.29,20.52.42,28.59.28,10.85.59,4.46.85-9.23.28-6.75-.2-15.82,1-24.17a59.29,59.29,0,0,1,9.57-24.37,64.93,64.93,0,0,1,10.95-12,63.63,63.63,0,0,1,13.9-8.5,59.25,59.25,0,0,1,15.77-4.27,80.58,80.58,0,0,1,8.26-.5h79.3l59,.11-94.09.23.07.15,31.25.07c20.52,0,35.75,0,48.53.33,11.75.27,31.06.3,57.47.26,31.88-.06,75.8-.34,98.51.26,8.53.23,1.38.57,1.38.86h89.32l-43,2.12,17.86.14c-53.22.2-26.81,1.13-70.35,1.45l42.25.33c-13.89.29-30.33.5-22.28,1,6.29.36-20,.83-28.69,1.27-3.5.18,3.62.39,1.69.58a135,135,0,0,1-14.75.64c-22.51.1-33.08.82-68.57.31l-16.71,0L75.19,47A47.55,47.55,0,0,0,37.08,67.21a47.36,47.36,0,0,0-8.37,21.42,54.17,54.17,0,0,0-.43,5.8l0,7.32q0,7.43,0,14.77c.08,46.29.17,92,.25,138.32q0,20,0,40.12v35.17l.2,3.94c1.1,20.84,17.94,39.46,38.36,43.21a49.49,49.49,0,0,0,6.11.74l3.15.17h4L95,378.11c51.92-.44,119-.26,160.34.29l74.43.36-2.51-.19c8.47-.24,12.95-.62,26.28-.7,26.5-.16,54.64-.15,82.12.19l7.86.08,4.31,0,3.57-.15a47.47,47.47,0,0,0,15-3.36,48.84,48.84,0,0,0,24.78-23,52.75,52.75,0,0,1-2.45,6,50.5,50.5,0,0,0,7.66-19.25,54.79,54.79,0,0,0,.76-7.56c0-2.79.08-5.22.11-7.35.11-8.64.26-12.18.42-13,.33-1.59.73,7.82,1.09,9.56-.07-32.39-.14-61.94-.2-90.9,0-45.22-.06-93.27.44-132.69a50.62,50.62,0,0,0-12.1-34.52,50.47,50.47,0,0,0-12.35-10.7,47.31,47.31,0,0,0-14.28-6.14,50.27,50.27,0,0,1,17.33,7.3,56.19,56.19,0,0,0-21-9.09c-1.53-.34-1.71-.49-.16-.38a38.56,38.56,0,0,1,10,2.2c4.7,1.56-.49-.56.57-.37a15.11,15.11,0,0,1,3.73,1.17A44.13,44.13,0,0,1,479,50.23a53.82,53.82,0,0,1,23.44,38.24c.62,5.74.46,13.34.63,20s.32,13.09.45,18.27c.34,10.33.74,16,1,11.12.75-14.14,1.46,26.69,1.42,80.72,0,30,0,60.19,0,90,0,6.49.19,13.38.31,17.52A69.85,69.85,0,0,1,505,343.49,58.76,58.76,0,0,1,493.92,367a59.8,59.8,0,0,1-23.19,17.7,63.94,63.94,0,0,1-26.17,4.55L427,389.16c-21.59-.48-21.24-.49-52.74-.06l47.62,1.36a25.56,25.56,0,0,1,5.91.58H366.66l-20.31-.16-31.38,0,.1.51,33,0c41,0,52.71.17,47.42.93,22.77-.28,40.45,0,58.52-.66a67.63,67.63,0,0,0,17.88-4.6,66.58,66.58,0,0,0,16-10,60.84,60.84,0,0,0,20.58-36.54c1.24-6.85.8-13.82.84-20.71s-.06-13.7-.09-20.46l-.5-79.13c0-17.5-.09-41.13-.13-62,0-16.23-.05-32.55-.08-48.82-.13-8.13.38-16.33-.87-24.05a59.85,59.85,0,0,0-8.12-21.89A61.5,61.5,0,0,0,477,42a60.26,60.26,0,0,0-19.1-6.65c-9.73-1.38-12.31-1.21-7.49-1.49a68.54,68.54,0,0,1,16.94,1.28,66,66,0,0,1,24.85,14.77c4.54,4.52,6.23,6.43,4.36,3.82A64.55,64.55,0,0,1,511.84,96q0,22.24.05,44.27C511.93,169.65,512,198.84,512,228ZM115.34,43.23c6.14.13,11.43.37,18.58.38l63.24,0,37.61-.08,22.59.1,2.88-.21-138-.31ZM32.92,373a69.92,69.92,0,0,1-10-13.82,62.21,62.21,0,0,1-6.8-21.79c-.82-8.28-.34-17.7-.54-27.19s-.15-19.38-.23-29.19c0,14.88,0,27.48,0,40.07l0,.93c0-6.08-.06-12.17-.16-29.89-.07,20.09-.1,31.64-.13,38.61A60.34,60.34,0,0,0,32.92,373Zm278.41,17.9H311c0,.17.08.34.11.51h.37C311.4,391.26,311.36,391.09,311.32,390.92Zm-24.91.54,18.36,0c0-.17-.07-.34-.11-.51l-18.37,0C286.34,391.11,286.38,391.28,286.42,391.45Zm18.86,0-.1-.51h-.37c0,.17,0,.34.08.51ZM234.36,391l-.07.42,51.5,0c0-.17-.07-.34-.09-.51Zm-2,.42.07-.42h-7.47l-.07.41Zm-26,0,.08-.37-113,.11-10.27.06a7,7,0,0,0,1,.11Zm-.71,42,.14-.35a128.75,128.75,0,0,0,6.49-14.69,130.84,130.84,0,0,1-10,20.25,59.31,59.31,0,0,1-10,12.44,55.5,55.5,0,0,0,11.95-14.45,96.75,96.75,0,0,0,6.61-14A116.12,116.12,0,0,1,205.66,433.43Zm25.23-35.18c.2-.89.41-1.78.59-2.68l-7.37,0c-.07.33-.11.67-.18,1-.12.57-.27,1.13-.39,1.7Zm56.17-.18c0-.22-.11-.45-.16-.67-.15-.67-.25-1.39-.39-2.07l-52.89.24c-.16,1-.31,1.82-.45,2.67C250,398.14,266.68,398,287.06,398.07Zm19.12,0c-.23-1-.39-1.91-.6-2.86l-18.27.08c.21.92.4,1.84.63,2.75l11.36,0Zm.65,0q-.36-1.37-.71-2.86h-.38c.21,1,.41,1.91.63,2.86Zm6.6,2.13h-.31a148.62,148.62,0,0,0,8.11,23l-.23-1.07c-1.12-2.57-2.3-5.13-3.22-7.81-1.66-4.43-3-9-4.21-13.61C313.51,400.61,313.48,400.42,313.43,400.23Zm-1.14-5h-.4c.22,1,.39,1.93.63,2.89h.42C312.71,397.14,312.51,396.17,312.29,395.21ZM2.83,337.76c-.09-2.52-.24-5.47-.26-8.11,0-2.45.07-5,.11-7.73.05-5.39.11-11.25.18-17.41,0-12.34.1-25.94.15-39.69,0-30.3,0-60.72.05-91.09q0-22.77.06-45.48,0-11.35,0-22.67l.05-11.42.35-6.64,1-6.58A74.69,74.69,0,0,1,19,49.53,86.52,86.52,0,0,1,31.11,37.07a76.92,76.92,0,0,1,36.7-17.33c2-.33-9.52.5-18.76,4.19A75.34,75.34,0,0,0,1.18,81.71C-.15,88.34,0,95.77,0,100.77l0,16.7c0,11.13,0,22.22,0,33.13,0,33.57.2,37.94.61,21.85.12-4.82.31-.87.47-.93,0,11.56,0,27.24,0,33.81C.87,219.54.69,229.11.52,238.2c.11,17.2.22,34,.34,50.59q.08,12.43.17,24.7l.08,12.26a116.07,116.07,0,0,0,.69,13.79A69.08,69.08,0,0,0,5.51,354.8c2.38,6.09,3.09,6.73,1.93,3.61A86.13,86.13,0,0,1,2.83,337.76ZM276.25,20.38l-8.87.45,79.05.24,27.62-.17c41.55-.61,23.16-1.64-28.75-2.1-55.23-.49-114.39-.25-171.46-.36H127.77l-5.12.18,144.72,1.87Z"/></svg>